<svg xmlns="http://www.w3.org/2000/svg" width="40" height="40" viewBox="0 0 40 40">
  <defs>
    <style>
      .cls-1 {
        fill: #fff;
        fill-rule: evenodd;
      }
    </style>
  </defs>
  <path id="cup" class="cls-1" d="M26.112,5.022L24.9,1.365A2,2,0,0,0,23,0H5A2,2,0,0,0,3.1,1.365L1.878,5.023A1.989,1.989,0,0,0,0,7v3a2,2,0,0,0,2,2H3.034a1.865,1.865,0,0,0-.021.22l2,18A2,2,0,0,0,7,32H21a2,2,0,0,0,1.987-1.779l2-18A1.868,1.868,0,0,0,24.966,12H26a2,2,0,0,0,2-2V7A1.988,1.988,0,0,0,26.112,5.022ZM5,2H23l1,3H4ZM7,30L6.667,27H21.333L21,30H7Zm14.444-4H6.556L5.444,16H22.556Zm1.223-11H5.333L5,12H23ZM26,10H2V7H26v3Z" transform="translate(6 4)"/>
</svg>
