<svg xmlns="http://www.w3.org/2000/svg" width="40" height="40" viewBox="0 0 40 40">
  <defs>
    <style>
      .cls-1 {
        fill: #fff;
        fill-rule: evenodd;
      }
    </style>
  </defs>
  <path id="like" class="cls-1" d="M29.164,10.471c-1.249-.328-4.19-0.324-8.488-0.438a14.521,14.521,0,0,0,.25-3.285C20.926,3.159,18.312,0,16,0a3.019,3.019,0,0,0-3,2.977c-0.022,2.014-.645,5.492-4,7.256-0.246.13-.95,0.477-1.053,0.522L8,10.8A3.166,3.166,0,0,0,6,10H3a3,3,0,0,0-3,3V29a3,3,0,0,0,3,3H6a2.964,2.964,0,0,0,2.668-1.726,0.224,0.224,0,0,0,.047.011l0.239,0.063A0.382,0.382,0,0,1,9,30.359c0.576,0.142,1.685.408,4.055,0.952A29.7,29.7,0,0,0,19.028,32h5.466a3.772,3.772,0,0,0,3.582-1.928A7.05,7.05,0,0,0,28.5,29a3.334,3.334,0,0,0,.024-1.76,4.485,4.485,0,0,0,1.645-2.581,3.922,3.922,0,0,0,0-2.726,4.711,4.711,0,0,0,1.337-2.765,3.758,3.758,0,0,0-.39-2.373,3.475,3.475,0,0,0,.854-2.176l0.012-.209c0.008-.132.014-0.213,0.014-0.5A3.7,3.7,0,0,0,29.164,10.471ZM7,29a1,1,0,0,1-1,1H3a1,1,0,0,1-1-1V13a1,1,0,0,1,1-1H6a1,1,0,0,1,1,1V29ZM29.978,14.533C29.957,15.028,29.75,16,28,16H26a0.5,0.5,0,1,0,0,1h1.937a1.517,1.517,0,0,1,1.6,1.844A2.179,2.179,0,0,1,27.376,21H25a0.5,0.5,0,0,0,0,1h1.969c1.688,0,1.54,1.287,1.3,2.054C27.947,25.064,27.752,26,25.626,26H23.994a0.5,0.5,0,0,0,0,1h1.568a1.057,1.057,0,0,1,1.031,1.406,5.283,5.283,0,0,1-.279.721,1.8,1.8,0,0,1-1.82.873H19.028a28.161,28.161,0,0,1-5.541-.639c-4.154-.958-4.373-1.031-4.634-1.105a0.984,0.984,0,0,1-.846-0.88L8,13.562a1.083,1.083,0,0,1,.794-1.041C8.855,12.5,8.94,12.47,9,12.445,13.568,10.553,14.959,6.4,15,3a1,1,0,0,1,1-1c1.058,0,2.926,2.123,2.926,4.749A11.965,11.965,0,0,1,18,12c10,0,9.93.144,10.812,0.375A1.534,1.534,0,0,1,30,13.9C30,14.247,29.99,14.2,29.978,14.533ZM4.5,26A1.5,1.5,0,1,0,6,27.5,1.5,1.5,0,0,0,4.5,26Zm0,2A0.5,0.5,0,1,1,5,27.5,0.5,0.5,0,0,1,4.5,28Z" transform="translate(4 4)"/>
</svg>
