<svg xmlns="http://www.w3.org/2000/svg" width="40" height="40" viewBox="0 0 40 40">
  <defs>
    <style>
      .cls-1 {
        fill: #fff;
        fill-rule: evenodd;
      }
    </style>
  </defs>
  <path id="stack" class="cls-1" d="M31.924,16.454l-4-15.005A2.005,2.005,0,0,0,26,0H6a2.005,2.005,0,0,0-1.922,1.45l-4,15.005A2.039,2.039,0,0,0,0,17v7a4,4,0,0,0,4,4H28a4,4,0,0,0,4-4V17A2.037,2.037,0,0,0,31.924,16.454ZM30,24a2,2,0,0,1-2,2H4a2,2,0,0,1-2-2V17L6,2H26l4,15v7ZM23.742,4H8.258a1,1,0,0,0-.967.743l-3.445,12A1,1,0,0,0,4.812,18H9.381l1.447,2.9A2,2,0,0,0,12.617,22h6.766a2,2,0,0,0,1.789-1.1L22.619,18h4.568a1,1,0,0,0,.967-1.256l-3.445-12A1,1,0,0,0,23.742,4Zm0.539,12H22.619a1.989,1.989,0,0,0-1.789,1.1L19.383,20H12.617L11.17,17.1A1.989,1.989,0,0,0,9.381,16H5.334L8.258,5H23.742l2.924,11H24.281Z" transform="translate(4 6)"/>
</svg>
