<svg xmlns="http://www.w3.org/2000/svg" width="40" height="40" viewBox="0 0 40 40">
  <defs>
    <style>
      .cls-1 {
        fill: #fff;
        fill-rule: evenodd;
      }
    </style>
  </defs>
  <path id="user" class="cls-1" d="M31.109,28.335a29.215,29.215,0,0,0-9.272-3.7,22.706,22.706,0,0,0,3.811-8.17C26.4,13.338,26.108,7.218,23.1,3.4A8.745,8.745,0,0,0,16,0,8.745,8.745,0,0,0,8.9,3.4c-3,3.813-3.3,9.933-2.543,13.062a22.709,22.709,0,0,0,3.811,8.17,29.214,29.214,0,0,0-9.272,3.7A2,2,0,0,0,2,32H30A2,2,0,0,0,31.109,28.335ZM20.267,23.4l-0.327.415c-2.385,2.739-5.494,2.739-7.879,0L11.733,23.4A17.093,17.093,0,0,1,8.161,10.748C8.707,6.469,11.159,2,16,2s7.293,4.47,7.839,8.75A17.1,17.1,0,0,1,20.267,23.4ZM2,30a27.191,27.191,0,0,1,8.586-3.408l2.484-.539A5.281,5.281,0,0,0,16,27a5.281,5.281,0,0,0,2.93-.947l2.484,0.539A27.222,27.222,0,0,1,30,30H2Z" transform="translate(4 4)"/>
</svg>
