<svg xmlns="http://www.w3.org/2000/svg" width="24" height="20.375" viewBox="0 0 24 20.375">
  <defs>
    <style>
      .cls-1 {
        fill: #fafafa;
        fill-rule: evenodd;
      }
    </style>
  </defs>
  <path id="handset" class="cls-1" d="M18.725,21.2V19.5H18.7c0.008-.142.021-0.281,0.021-0.425V9.723a7.225,7.225,0,1,0-14.45,0v9.349c0,0.144.013,0.284,0.021,0.425H4.275v1.7a4.366,4.366,0,0,1-4.25-4.675,4.228,4.228,0,0,1,2.55-4.272V9.723a8.925,8.925,0,0,1,17.85,0v2.528a4.228,4.228,0,0,1,2.55,4.272A4.366,4.366,0,0,1,18.725,21.2Zm-12.75,0H5.125v-9.35h0.85V21.2Zm11.9,0h-0.85v-9.35h0.85V21.2Z" transform="translate(0.5 -0.813)"/>
</svg>
