<svg xmlns="http://www.w3.org/2000/svg" width="24" height="20" viewBox="0 0 24 20">
  <defs>
    <style>
      .cls-1 {
        fill: #fafafa;
        fill-rule: evenodd;
      }
    </style>
  </defs>
  <path id="slideshow" class="cls-1" d="M19.65,17.724H1.8a1.7,1.7,0,0,1-1.7-1.7V2.424A1.7,1.7,0,0,1,1.8.723H19.65a1.7,1.7,0,0,1,1.7,1.7v13.6A1.7,1.7,0,0,1,19.65,17.724Zm0-15.3H1.8v13.6H19.65V2.424ZM6.6,12.822L9.143,8.484l2.541,2.7,3.494-5.554,3.652,9.557H2.632L4.7,10.832ZM5.2,4.974a1.7,1.7,0,1,1-1.7,1.7A1.7,1.7,0,0,1,5.2,4.974Z" transform="translate(1.281 0.781)"/>
</svg>
