<svg xmlns="http://www.w3.org/2000/svg" width="32" height="32" viewBox="0 0 32 32">
  <defs>
    <style>
      .cls-1 {
        fill: #0d0d0d;
        fill-rule: evenodd;
      }
    </style>
  </defs>
  <path id="lab" class="cls-1" d="M20.682,3.732a2.5,2.5,0,0,0-3.536,0L15.734,5.145a2.5,2.5,0,0,0-.363,3.082L1.794,13.665a3,3,0,0,0-.908,4.876l12.72,12.58A2.974,2.974,0,0,0,15.652,32h0.077a2.992,2.992,0,0,0,2.787-1.89l5.342-13.375a2.5,2.5,0,0,0,3.136-.327L28.4,15a2.5,2.5,0,0,0,.005-3.541ZM16.658,29.366a1,1,0,0,1-1.637.341L2.293,17.12A1,1,0,0,1,2.6,15.5l6.217-2.492c4.189,1.393,8.379.052,12.57,4.522ZM26.992,13.579l-1.413,1.413a0.5,0.5,0,0,1-.707,0L23.1,13.226l-1.433,3.589,0.121-.3c-3.01-3.005-6.07-3.384-8.83-3.723-0.887-.109-1.747-0.222-2.592-0.4l8.492-3.4L17.146,7.268a0.5,0.5,0,0,1,0-.707L18.56,5.146a0.5,0.5,0,0,1,.707,0l7.725,7.726A0.5,0.5,0,0,1,26.992,13.579ZM16.5,21A2.5,2.5,0,1,0,14,18.5,2.5,2.5,0,0,0,16.5,21Zm0-4A1.5,1.5,0,1,1,15,18.5,1.5,1.5,0,0,1,16.5,17Zm13-17A2.5,2.5,0,1,0,32,2.5,2.5,2.5,0,0,0,29.5,0Zm0,4A1.5,1.5,0,1,1,31,2.5,1.5,1.5,0,0,1,29.5,4ZM8,17a2,2,0,1,0,2-2A2,2,0,0,0,8,17Zm2-1a1,1,0,1,1-1,1A1,1,0,0,1,10,16Zm3,8a1,1,0,1,0-1-1A1,1,0,0,0,13,24ZM29,7a1,1,0,1,0,1,1A1,1,0,0,0,29,7Z"/>
</svg>
