<svg xmlns="http://www.w3.org/2000/svg" width="32" height="32" viewBox="0 0 32 32">
  <defs>
    <style>
      .cls-1 {
        fill: #0d0d0d;
        fill-rule: evenodd;
      }
    </style>
  </defs>
  <path id="world" class="cls-1" d="M14.5,0.549A13.95,13.95,0,1,0,28.45,14.5,13.95,13.95,0,0,0,14.5.549Zm12.127,13.5h-5.4A17.915,17.915,0,0,0,20.2,8.408,14.785,14.785,0,0,0,23.56,6.431,12.078,12.078,0,0,1,26.627,14.049ZM14,26.624a14.347,14.347,0,0,1-3.669-4.741,13.914,13.914,0,0,1,3.716-.611v5.354ZM15,2.375a14.539,14.539,0,0,1,4.019,5.513,13.886,13.886,0,0,1-4.066.739V2.372Zm1.5,0.153a12.108,12.108,0,0,1,6.448,3.253,13.836,13.836,0,0,1-3.084,1.8A15.826,15.826,0,0,0,16.5,2.528ZM14.05,2.372V8.627a13.886,13.886,0,0,1-4.066-.739A14.54,14.54,0,0,1,14,2.375ZM9.141,7.579a13.836,13.836,0,0,1-3.084-1.8A12.108,12.108,0,0,1,12.5,2.528,15.827,15.827,0,0,0,9.141,7.579Zm0.5,1.138a14.76,14.76,0,0,0,4.405.809v4.523H8.669A17.02,17.02,0,0,1,9.645,8.717ZM14.05,14.95v5.422a14.8,14.8,0,0,0-4.085.692,16.888,16.888,0,0,1-1.3-6.114H14.05ZM12.5,26.471a12.091,12.091,0,0,1-5.89-2.746,13.762,13.762,0,0,1,2.869-1.531A15.582,15.582,0,0,0,12.5,26.471Zm2.445,0.156V21.273a13.915,13.915,0,0,1,3.716.611A14.351,14.351,0,0,1,15,26.624Zm4.567-4.433a13.761,13.761,0,0,1,2.869,1.531,12.091,12.091,0,0,1-5.89,2.746A15.583,15.583,0,0,0,19.517,22.193Zm-0.482-1.13a14.8,14.8,0,0,0-4.085-.692V14.95h5.381A16.889,16.889,0,0,1,19.035,21.064ZM14.95,14.049V9.526a14.759,14.759,0,0,0,4.405-.809,17.019,17.019,0,0,1,.976,5.332H14.95ZM5.44,6.431A14.782,14.782,0,0,0,8.8,8.408a17.91,17.91,0,0,0-1.033,5.64h-5.4A12.078,12.078,0,0,1,5.44,6.431ZM2.373,14.95h5.4a17.762,17.762,0,0,0,1.353,6.423A14.645,14.645,0,0,0,5.938,23.11,12.109,12.109,0,0,1,2.373,14.95Zm20.689,8.16a14.645,14.645,0,0,0-3.184-1.737,17.762,17.762,0,0,0,1.353-6.423h5.4A12.109,12.109,0,0,1,23.062,23.11Z" transform="translate(1.5 1.5)"/>
</svg>
