<svg xmlns="http://www.w3.org/2000/svg" width="40" height="40" viewBox="0 0 40 40">
  <defs>
    <style>
      .cls-1 {
        fill: #0d0d0d;
        fill-rule: evenodd;
      }
    </style>
  </defs>
  <path id="banknote" class="cls-1" d="M31.415,10.585l-10-10a2,2,0,0,0-3.325.823,9.316,9.316,0,0,1-2.4,3.9A27.391,27.391,0,0,1,10,9.269a30.694,30.694,0,0,0-6.519,4.588A13.207,13.207,0,0,0,.089,19.408a2,2,0,0,0,.5,2.006l10,10a2,2,0,0,0,3.325-.824,9.3,9.3,0,0,1,2.4-3.9A27.31,27.31,0,0,1,22,22.729a30.8,30.8,0,0,0,6.518-4.589,13.2,13.2,0,0,0,3.388-5.551A2,2,0,0,0,31.415,10.585ZM12,30C8.688,26.687,5.312,23.31,2,20c2.842-9.2,15.159-8.8,18-18,3.313,3.311,6.689,6.688,10,10C27.159,21.2,14.841,20.8,12,30Zm7.56-15.1a2.667,2.667,0,0,0-.984-0.55,2.89,2.89,0,0,0-.988-0.106,3.539,3.539,0,0,0-1,.229c-0.336.131-.674,0.274-1.014,0.437-0.537-.618-1.074-1.227-1.611-1.793a1.126,1.126,0,0,1,.7-0.338,2.246,2.246,0,0,1,.652.067c0.211,0.052.4,0.1,0.582,0.133a0.537,0.537,0,0,0,.473-0.12,0.668,0.668,0,0,0,.236-0.483,0.8,0.8,0,0,0-.229-0.575,1.292,1.292,0,0,0-.77-0.443,2.366,2.366,0,0,0-.93.021,3.159,3.159,0,0,0-.9.36,3.474,3.474,0,0,0-.684.508c-0.065-.063-0.13-0.124-0.2-0.184a0.374,0.374,0,0,0-.269-0.1,0.35,0.35,0,0,0-.273.133,0.384,0.384,0,0,0,.035.537l0.2,0.166a4.6,4.6,0,0,0-.633,1.01,3.374,3.374,0,0,0-.3,1.066,2.111,2.111,0,0,0,.105.967,1.848,1.848,0,0,0,.594.793,2.3,2.3,0,0,0,1.668.518,5.011,5.011,0,0,0,2.074-.628c0.591,0.682,1.183,1.36,1.773,1.989a1.572,1.572,0,0,1-.662.371,1.052,1.052,0,0,1-.521-0.009,1.641,1.641,0,0,1-.434-0.21,3.2,3.2,0,0,0-.394-0.235,0.913,0.913,0,0,0-.4-0.1,0.68,0.68,0,0,0-.441.2,0.639,0.639,0,0,0-.246.5,0.871,0.871,0,0,0,.254.566,2.036,2.036,0,0,0,.658.479,2.455,2.455,0,0,0,.9.228,2.5,2.5,0,0,0,1.051-.163,3.047,3.047,0,0,0,1.1-.742q0.262,0.253.526,0.488a0.361,0.361,0,0,0,.273.088,0.358,0.358,0,0,0,.27-0.141,0.381,0.381,0,0,0,.094-0.292,0.339,0.339,0,0,0-.125-0.245q-0.264-.21-0.527-0.445a5.466,5.466,0,0,0,.717-1.137,3.5,3.5,0,0,0,.318-1.1,1.963,1.963,0,0,0-.119-0.941A1.907,1.907,0,0,0,19.561,14.9Zm-5.59.678a0.97,0.97,0,0,1-.746-0.291,0.731,0.731,0,0,1-.2-0.322,1.009,1.009,0,0,1-.039-0.418,1.319,1.319,0,0,1,.137-0.464,1.849,1.849,0,0,1,.324-0.468c0.507,0.5,1.013,1.056,1.519,1.628A2.359,2.359,0,0,1,13.971,15.577Zm4.717,2a2.1,2.1,0,0,1-.314.444c-0.559-.567-1.12-1.188-1.68-1.827,0.142-.064.293-0.131,0.455-0.2a2.153,2.153,0,0,1,.486-0.141,1.255,1.255,0,0,1,.494.022,1.008,1.008,0,0,1,.459.267,0.913,0.913,0,0,1,.266.445,1.209,1.209,0,0,1,.014.489A1.626,1.626,0,0,1,18.688,17.579Zm-3.971,4.6h0a18.12,18.12,0,0,0-1.8,1.553,14.573,14.573,0,0,0-1.461,1.7l-0.684.933,0,0a0.5,0.5,0,0,0,.776.627,0.475,0.475,0,0,0,.074-0.1l0.639-.876a13.625,13.625,0,0,1,1.361-1.579,15.688,15.688,0,0,1,1.714-1.475l0,0a0.455,0.455,0,0,0,.051-0.04A0.5,0.5,0,0,0,14.717,22.179Zm3.66-14.464A16.707,16.707,0,0,1,16.7,9.157a0.5,0.5,0,1,0,.582.815l0,0a18.341,18.341,0,0,0,1.8-1.553,14.547,14.547,0,0,0,1.461-1.7l0.684-.937,0,0A0.5,0.5,0,0,0,20.489,5.1a0.564,0.564,0,0,0-.087.124l-0.665.91A13.418,13.418,0,0,1,18.378,7.715Z" transform="translate(4 4)"/>
</svg>
