<svg width="256" height="256" xmlns="http://www.w3.org/2000/svg">

 <g>
  <title>background</title>
  <rect fill="none" id="canvas_background" height="402" width="582" y="-1" x="-1"/>
 </g>
 <g>
  <title>Layer 1</title>
  <path fill="#ffffff" id="svg_1" d="m228.646,34.7676a11.96514,11.96514 0 0 0 -12.21778,-2.0752l-184.55713,72.50489a11.99915,11.99915 0 0 0 2.03467,22.93457l50.09424,10.01953l0,61.833a11.8137,11.8137 0 0 0 7.40771,11.08593a12.17148,12.17148 0 0 0 4.66846,0.94434a11.83219,11.83219 0 0 0 8.40918,-3.5459l28.59619,-28.59619l42.19336,37.13043a11.89844,11.89844 0 0 0 7.88819,3.00195a12.112,12.112 0 0 0 3.72265,-0.59082a11.89762,11.89762 0 0 0 8.01319,-8.73925l37.61377,-164.13288a11.97177,11.97177 0 0 0 -3.8667,-11.7744zm-196.3711,81.95117a3.86572,3.86572 0 0 1 2.522,-4.07617l169.17527,-66.46216l-116.8999,84.42725l-51.59766,-10.31958a3.86618,3.86618 0 0 1 -3.19971,-3.56934zm66.55322,86.09375a3.99976,3.99976 0 0 1 -6.82812,-2.82812l0,-56.26392l35.064,30.85669l-28.23588,28.23535zm97.65084,-129.82227l-9.37789,135.89747a4.0003,4.0003 0 0 1 -6.5415,2.10937l-86.1543,-75.8164l129.66309,-93.645a3.80732,3.80732 0 0 1 0.64648,3.21921l-28.23588,28.23535z"/>
 </g>
</svg>