<svg width="28" height="28" xmlns="http://www.w3.org/2000/svg">

 <g>
  <title>background</title>
  <rect fill="none" id="canvas_background" height="30" width="30" y="-1" x="-1"/>
 </g>
 <g>
  <title>Layer 1</title>
  <path fill="#ffffff" stroke="null" id="svg_1" d="m27.434065,4.490872a11.405522,12.35797 0 0 1 -3.170439,0.931578a5.548269,6.011592 0 0 0 2.431566,-3.304192a11.029368,11.950405 0 0 1 -3.506291,1.455591a5.507967,5.967924 0 0 0 -9.403846,5.443912a15.637252,16.943083 0 0 1 -11.351785,-6.244487a5.588571,6.05526 0 0 0 -0.738874,3.013074a5.494533,5.953369 0 0 0 2.445,4.963566a5.440797,5.895145 0 0 1 -2.498736,-0.742352l0,0.07278a5.507967,5.967924 0 0 0 4.433242,5.822365a5.279588,5.720474 0 0 1 -1.477747,0.247451a6.582692,7.132397 0 0 1 -1.034423,-0.101891a5.521401,5.98248 0 0 0 5.145247,4.133879a11.042802,11.964961 0 0 1 -6.797637,2.561841a10.653214,11.542839 0 0 1 -1.343407,-0.087335a15.543214,16.841192 0 0 0 8.450027,2.692844a15.570082,16.870303 0 0 0 15.731291,-17.001307c0,-0.247451 0,-0.509457 0,-0.771463a11.324917,12.270635 0 0 0 2.686813,-3.085854z"/>
 </g>
</svg>